<mxfile host="Electron" modified="2023-11-12T22:36:07.624Z" agent="Mozilla/5.0 (Windows NT 10.0; Win64; x64) AppleWebKit/537.36 (KHTML, like Gecko) draw.io/22.0.3 Chrome/114.0.5735.289 Electron/25.8.4 Safari/537.36" etag="pIJgk3Zs3xQgK11xmaJM" version="22.0.3" type="device">
  <diagram id="C5RBs43oDa-KdzZeNtuy" name="Page-1">
    <mxGraphModel dx="1036" dy="606" grid="1" gridSize="10" guides="1" tooltips="1" connect="1" arrows="1" fold="1" page="1" pageScale="1" pageWidth="827" pageHeight="1169" math="0" shadow="0">
      <root>
        <mxCell id="WIyWlLk6GJQsqaUBKTNV-0" />
        <mxCell id="WIyWlLk6GJQsqaUBKTNV-1" parent="WIyWlLk6GJQsqaUBKTNV-0" />
        <mxCell id="PF4K7zb1NUCe5OKD4z1z-2" style="edgeStyle=orthogonalEdgeStyle;rounded=0;orthogonalLoop=1;jettySize=auto;html=1;" parent="WIyWlLk6GJQsqaUBKTNV-1" source="PF4K7zb1NUCe5OKD4z1z-0" target="PF4K7zb1NUCe5OKD4z1z-1" edge="1">
          <mxGeometry relative="1" as="geometry" />
        </mxCell>
        <mxCell id="PF4K7zb1NUCe5OKD4z1z-0" value="Start" style="ellipse;whiteSpace=wrap;html=1;" parent="WIyWlLk6GJQsqaUBKTNV-1" vertex="1">
          <mxGeometry x="260" y="40" width="120" height="80" as="geometry" />
        </mxCell>
        <mxCell id="PF4K7zb1NUCe5OKD4z1z-17" style="edgeStyle=orthogonalEdgeStyle;rounded=0;orthogonalLoop=1;jettySize=auto;html=1;" parent="WIyWlLk6GJQsqaUBKTNV-1" source="PF4K7zb1NUCe5OKD4z1z-1" target="PF4K7zb1NUCe5OKD4z1z-3" edge="1">
          <mxGeometry relative="1" as="geometry" />
        </mxCell>
        <mxCell id="PF4K7zb1NUCe5OKD4z1z-1" value="date,month" style="shape=parallelogram;perimeter=parallelogramPerimeter;whiteSpace=wrap;html=1;fixedSize=1;" parent="WIyWlLk6GJQsqaUBKTNV-1" vertex="1">
          <mxGeometry x="245" y="160" width="150" height="80" as="geometry" />
        </mxCell>
        <mxCell id="PF4K7zb1NUCe5OKD4z1z-18" value="False" style="edgeStyle=orthogonalEdgeStyle;rounded=0;orthogonalLoop=1;jettySize=auto;html=1;" parent="WIyWlLk6GJQsqaUBKTNV-1" source="PF4K7zb1NUCe5OKD4z1z-3" target="PF4K7zb1NUCe5OKD4z1z-4" edge="1">
          <mxGeometry relative="1" as="geometry" />
        </mxCell>
        <mxCell id="PF4K7zb1NUCe5OKD4z1z-64" value="true" style="edgeStyle=orthogonalEdgeStyle;rounded=0;orthogonalLoop=1;jettySize=auto;html=1;entryX=0;entryY=0.5;entryDx=0;entryDy=0;" parent="WIyWlLk6GJQsqaUBKTNV-1" source="PF4K7zb1NUCe5OKD4z1z-3" target="PF4K7zb1NUCe5OKD4z1z-41" edge="1">
          <mxGeometry relative="1" as="geometry" />
        </mxCell>
        <mxCell id="PF4K7zb1NUCe5OKD4z1z-3" value="month==3" style="rhombus;whiteSpace=wrap;html=1;" parent="WIyWlLk6GJQsqaUBKTNV-1" vertex="1">
          <mxGeometry x="232.5" y="290" width="175" height="110" as="geometry" />
        </mxCell>
        <mxCell id="PF4K7zb1NUCe5OKD4z1z-19" value="False" style="edgeStyle=orthogonalEdgeStyle;rounded=0;orthogonalLoop=1;jettySize=auto;html=1;" parent="WIyWlLk6GJQsqaUBKTNV-1" source="PF4K7zb1NUCe5OKD4z1z-4" target="PF4K7zb1NUCe5OKD4z1z-13" edge="1">
          <mxGeometry relative="1" as="geometry" />
        </mxCell>
        <mxCell id="PF4K7zb1NUCe5OKD4z1z-63" value="true" style="edgeStyle=orthogonalEdgeStyle;rounded=0;orthogonalLoop=1;jettySize=auto;html=1;" parent="WIyWlLk6GJQsqaUBKTNV-1" source="PF4K7zb1NUCe5OKD4z1z-4" target="PF4K7zb1NUCe5OKD4z1z-42" edge="1">
          <mxGeometry relative="1" as="geometry" />
        </mxCell>
        <mxCell id="PF4K7zb1NUCe5OKD4z1z-4" value="month==4" style="rhombus;whiteSpace=wrap;html=1;" parent="WIyWlLk6GJQsqaUBKTNV-1" vertex="1">
          <mxGeometry x="230" y="430" width="175" height="110" as="geometry" />
        </mxCell>
        <mxCell id="PF4K7zb1NUCe5OKD4z1z-30" style="edgeStyle=orthogonalEdgeStyle;rounded=0;orthogonalLoop=1;jettySize=auto;html=1;" parent="WIyWlLk6GJQsqaUBKTNV-1" source="PF4K7zb1NUCe5OKD4z1z-5" target="PF4K7zb1NUCe5OKD4z1z-29" edge="1">
          <mxGeometry relative="1" as="geometry" />
        </mxCell>
        <mxCell id="PF4K7zb1NUCe5OKD4z1z-5" value="month==2" style="rhombus;whiteSpace=wrap;html=1;" parent="WIyWlLk6GJQsqaUBKTNV-1" vertex="1">
          <mxGeometry x="200" y="1940" width="175" height="110" as="geometry" />
        </mxCell>
        <mxCell id="PF4K7zb1NUCe5OKD4z1z-28" value="False" style="edgeStyle=orthogonalEdgeStyle;rounded=0;orthogonalLoop=1;jettySize=auto;html=1;" parent="WIyWlLk6GJQsqaUBKTNV-1" source="PF4K7zb1NUCe5OKD4z1z-7" target="PF4K7zb1NUCe5OKD4z1z-5" edge="1">
          <mxGeometry relative="1" as="geometry" />
        </mxCell>
        <mxCell id="PF4K7zb1NUCe5OKD4z1z-7" value="month==1" style="rhombus;whiteSpace=wrap;html=1;" parent="WIyWlLk6GJQsqaUBKTNV-1" vertex="1">
          <mxGeometry x="200" y="1770" width="175" height="110" as="geometry" />
        </mxCell>
        <mxCell id="PF4K7zb1NUCe5OKD4z1z-26" value="False" style="edgeStyle=orthogonalEdgeStyle;rounded=0;orthogonalLoop=1;jettySize=auto;html=1;entryX=0.5;entryY=0;entryDx=0;entryDy=0;" parent="WIyWlLk6GJQsqaUBKTNV-1" source="PF4K7zb1NUCe5OKD4z1z-8" target="PF4K7zb1NUCe5OKD4z1z-11" edge="1">
          <mxGeometry relative="1" as="geometry" />
        </mxCell>
        <mxCell id="PF4K7zb1NUCe5OKD4z1z-8" value="month==11" style="rhombus;whiteSpace=wrap;html=1;" parent="WIyWlLk6GJQsqaUBKTNV-1" vertex="1">
          <mxGeometry x="200" y="1440" width="175" height="110" as="geometry" />
        </mxCell>
        <mxCell id="PF4K7zb1NUCe5OKD4z1z-24" value="False" style="edgeStyle=orthogonalEdgeStyle;rounded=0;orthogonalLoop=1;jettySize=auto;html=1;" parent="WIyWlLk6GJQsqaUBKTNV-1" source="PF4K7zb1NUCe5OKD4z1z-9" target="PF4K7zb1NUCe5OKD4z1z-10" edge="1">
          <mxGeometry relative="1" as="geometry" />
        </mxCell>
        <mxCell id="PF4K7zb1NUCe5OKD4z1z-9" value="month==9" style="rhombus;whiteSpace=wrap;html=1;" parent="WIyWlLk6GJQsqaUBKTNV-1" vertex="1">
          <mxGeometry x="200" y="1120" width="175" height="110" as="geometry" />
        </mxCell>
        <mxCell id="PF4K7zb1NUCe5OKD4z1z-25" value="False" style="edgeStyle=orthogonalEdgeStyle;rounded=0;orthogonalLoop=1;jettySize=auto;html=1;entryX=0.5;entryY=0;entryDx=0;entryDy=0;" parent="WIyWlLk6GJQsqaUBKTNV-1" source="PF4K7zb1NUCe5OKD4z1z-10" target="PF4K7zb1NUCe5OKD4z1z-8" edge="1">
          <mxGeometry relative="1" as="geometry" />
        </mxCell>
        <mxCell id="PF4K7zb1NUCe5OKD4z1z-10" value="month==10" style="rhombus;whiteSpace=wrap;html=1;" parent="WIyWlLk6GJQsqaUBKTNV-1" vertex="1">
          <mxGeometry x="200" y="1290" width="175" height="110" as="geometry" />
        </mxCell>
        <mxCell id="PF4K7zb1NUCe5OKD4z1z-27" value="False" style="edgeStyle=orthogonalEdgeStyle;rounded=0;orthogonalLoop=1;jettySize=auto;html=1;" parent="WIyWlLk6GJQsqaUBKTNV-1" source="PF4K7zb1NUCe5OKD4z1z-11" target="PF4K7zb1NUCe5OKD4z1z-7" edge="1">
          <mxGeometry relative="1" as="geometry" />
        </mxCell>
        <mxCell id="PF4K7zb1NUCe5OKD4z1z-11" value="month==12" style="rhombus;whiteSpace=wrap;html=1;" parent="WIyWlLk6GJQsqaUBKTNV-1" vertex="1">
          <mxGeometry x="200" y="1600" width="175" height="110" as="geometry" />
        </mxCell>
        <mxCell id="PF4K7zb1NUCe5OKD4z1z-23" value="False" style="edgeStyle=orthogonalEdgeStyle;rounded=0;orthogonalLoop=1;jettySize=auto;html=1;entryX=0.5;entryY=0;entryDx=0;entryDy=0;" parent="WIyWlLk6GJQsqaUBKTNV-1" source="PF4K7zb1NUCe5OKD4z1z-12" target="PF4K7zb1NUCe5OKD4z1z-9" edge="1">
          <mxGeometry relative="1" as="geometry" />
        </mxCell>
        <mxCell id="PF4K7zb1NUCe5OKD4z1z-59" value="true" style="edgeStyle=orthogonalEdgeStyle;rounded=0;orthogonalLoop=1;jettySize=auto;html=1;" parent="WIyWlLk6GJQsqaUBKTNV-1" source="PF4K7zb1NUCe5OKD4z1z-12" target="PF4K7zb1NUCe5OKD4z1z-43" edge="1">
          <mxGeometry relative="1" as="geometry" />
        </mxCell>
        <mxCell id="PF4K7zb1NUCe5OKD4z1z-12" value="month==8" style="rhombus;whiteSpace=wrap;html=1;" parent="WIyWlLk6GJQsqaUBKTNV-1" vertex="1">
          <mxGeometry x="200" y="960" width="175" height="110" as="geometry" />
        </mxCell>
        <mxCell id="PF4K7zb1NUCe5OKD4z1z-20" value="False" style="edgeStyle=orthogonalEdgeStyle;rounded=0;orthogonalLoop=1;jettySize=auto;html=1;" parent="WIyWlLk6GJQsqaUBKTNV-1" source="PF4K7zb1NUCe5OKD4z1z-13" target="PF4K7zb1NUCe5OKD4z1z-15" edge="1">
          <mxGeometry relative="1" as="geometry" />
        </mxCell>
        <mxCell id="PF4K7zb1NUCe5OKD4z1z-62" value="true" style="edgeStyle=orthogonalEdgeStyle;rounded=0;orthogonalLoop=1;jettySize=auto;html=1;" parent="WIyWlLk6GJQsqaUBKTNV-1" source="PF4K7zb1NUCe5OKD4z1z-13" target="PF4K7zb1NUCe5OKD4z1z-44" edge="1">
          <mxGeometry relative="1" as="geometry" />
        </mxCell>
        <mxCell id="PF4K7zb1NUCe5OKD4z1z-13" value="month==5" style="rhombus;whiteSpace=wrap;html=1;" parent="WIyWlLk6GJQsqaUBKTNV-1" vertex="1">
          <mxGeometry x="220" y="560" width="175" height="110" as="geometry" />
        </mxCell>
        <mxCell id="PF4K7zb1NUCe5OKD4z1z-22" value="False" style="edgeStyle=orthogonalEdgeStyle;rounded=0;orthogonalLoop=1;jettySize=auto;html=1;" parent="WIyWlLk6GJQsqaUBKTNV-1" source="PF4K7zb1NUCe5OKD4z1z-14" target="PF4K7zb1NUCe5OKD4z1z-12" edge="1">
          <mxGeometry relative="1" as="geometry" />
        </mxCell>
        <mxCell id="PF4K7zb1NUCe5OKD4z1z-60" value="true" style="edgeStyle=orthogonalEdgeStyle;rounded=0;orthogonalLoop=1;jettySize=auto;html=1;" parent="WIyWlLk6GJQsqaUBKTNV-1" source="PF4K7zb1NUCe5OKD4z1z-14" target="PF4K7zb1NUCe5OKD4z1z-45" edge="1">
          <mxGeometry relative="1" as="geometry" />
        </mxCell>
        <mxCell id="PF4K7zb1NUCe5OKD4z1z-14" value="month==7" style="rhombus;whiteSpace=wrap;html=1;" parent="WIyWlLk6GJQsqaUBKTNV-1" vertex="1">
          <mxGeometry x="205" y="820" width="175" height="110" as="geometry" />
        </mxCell>
        <mxCell id="PF4K7zb1NUCe5OKD4z1z-21" value="False" style="edgeStyle=orthogonalEdgeStyle;rounded=0;orthogonalLoop=1;jettySize=auto;html=1;" parent="WIyWlLk6GJQsqaUBKTNV-1" source="PF4K7zb1NUCe5OKD4z1z-15" target="PF4K7zb1NUCe5OKD4z1z-14" edge="1">
          <mxGeometry relative="1" as="geometry" />
        </mxCell>
        <mxCell id="PF4K7zb1NUCe5OKD4z1z-61" value="true" style="edgeStyle=orthogonalEdgeStyle;rounded=0;orthogonalLoop=1;jettySize=auto;html=1;" parent="WIyWlLk6GJQsqaUBKTNV-1" source="PF4K7zb1NUCe5OKD4z1z-15" target="PF4K7zb1NUCe5OKD4z1z-46" edge="1">
          <mxGeometry relative="1" as="geometry" />
        </mxCell>
        <mxCell id="PF4K7zb1NUCe5OKD4z1z-15" value="month==6" style="rhombus;whiteSpace=wrap;html=1;" parent="WIyWlLk6GJQsqaUBKTNV-1" vertex="1">
          <mxGeometry x="205" y="690" width="175" height="110" as="geometry" />
        </mxCell>
        <mxCell id="PF4K7zb1NUCe5OKD4z1z-109" style="edgeStyle=orthogonalEdgeStyle;rounded=0;orthogonalLoop=1;jettySize=auto;html=1;entryX=0;entryY=0.5;entryDx=0;entryDy=0;" parent="WIyWlLk6GJQsqaUBKTNV-1" source="PF4K7zb1NUCe5OKD4z1z-29" target="PF4K7zb1NUCe5OKD4z1z-108" edge="1">
          <mxGeometry relative="1" as="geometry">
            <Array as="points">
              <mxPoint x="300" y="2298" />
            </Array>
          </mxGeometry>
        </mxCell>
        <mxCell id="PF4K7zb1NUCe5OKD4z1z-29" value="Khong hop le" style="shape=parallelogram;perimeter=parallelogramPerimeter;whiteSpace=wrap;html=1;fixedSize=1;" parent="WIyWlLk6GJQsqaUBKTNV-1" vertex="1">
          <mxGeometry x="180" y="2110" width="215" height="80" as="geometry" />
        </mxCell>
        <mxCell id="PF4K7zb1NUCe5OKD4z1z-31" value="month==2" style="rhombus;whiteSpace=wrap;html=1;" parent="WIyWlLk6GJQsqaUBKTNV-1" vertex="1">
          <mxGeometry x="200" y="1940" width="175" height="110" as="geometry" />
        </mxCell>
        <mxCell id="PF4K7zb1NUCe5OKD4z1z-32" value="month==1" style="rhombus;whiteSpace=wrap;html=1;" parent="WIyWlLk6GJQsqaUBKTNV-1" vertex="1">
          <mxGeometry x="200" y="1770" width="175" height="110" as="geometry" />
        </mxCell>
        <mxCell id="PF4K7zb1NUCe5OKD4z1z-33" value="month==12" style="rhombus;whiteSpace=wrap;html=1;" parent="WIyWlLk6GJQsqaUBKTNV-1" vertex="1">
          <mxGeometry x="200" y="1600" width="175" height="110" as="geometry" />
        </mxCell>
        <mxCell id="PF4K7zb1NUCe5OKD4z1z-34" value="month==11" style="rhombus;whiteSpace=wrap;html=1;" parent="WIyWlLk6GJQsqaUBKTNV-1" vertex="1">
          <mxGeometry x="200" y="1440" width="175" height="110" as="geometry" />
        </mxCell>
        <mxCell id="PF4K7zb1NUCe5OKD4z1z-53" value="True" style="edgeStyle=orthogonalEdgeStyle;rounded=0;orthogonalLoop=1;jettySize=auto;html=1;" parent="WIyWlLk6GJQsqaUBKTNV-1" source="PF4K7zb1NUCe5OKD4z1z-35" target="PF4K7zb1NUCe5OKD4z1z-47" edge="1">
          <mxGeometry relative="1" as="geometry" />
        </mxCell>
        <mxCell id="PF4K7zb1NUCe5OKD4z1z-35" value="month==2" style="rhombus;whiteSpace=wrap;html=1;" parent="WIyWlLk6GJQsqaUBKTNV-1" vertex="1">
          <mxGeometry x="200" y="1940" width="175" height="110" as="geometry" />
        </mxCell>
        <mxCell id="PF4K7zb1NUCe5OKD4z1z-54" value="True" style="edgeStyle=orthogonalEdgeStyle;rounded=0;orthogonalLoop=1;jettySize=auto;html=1;" parent="WIyWlLk6GJQsqaUBKTNV-1" source="PF4K7zb1NUCe5OKD4z1z-36" target="PF4K7zb1NUCe5OKD4z1z-48" edge="1">
          <mxGeometry relative="1" as="geometry" />
        </mxCell>
        <mxCell id="PF4K7zb1NUCe5OKD4z1z-36" value="month==1" style="rhombus;whiteSpace=wrap;html=1;" parent="WIyWlLk6GJQsqaUBKTNV-1" vertex="1">
          <mxGeometry x="200" y="1770" width="175" height="110" as="geometry" />
        </mxCell>
        <mxCell id="PF4K7zb1NUCe5OKD4z1z-55" value="true" style="edgeStyle=orthogonalEdgeStyle;rounded=0;orthogonalLoop=1;jettySize=auto;html=1;" parent="WIyWlLk6GJQsqaUBKTNV-1" source="PF4K7zb1NUCe5OKD4z1z-37" target="PF4K7zb1NUCe5OKD4z1z-49" edge="1">
          <mxGeometry relative="1" as="geometry" />
        </mxCell>
        <mxCell id="PF4K7zb1NUCe5OKD4z1z-37" value="month==12" style="rhombus;whiteSpace=wrap;html=1;" parent="WIyWlLk6GJQsqaUBKTNV-1" vertex="1">
          <mxGeometry x="200" y="1600" width="175" height="110" as="geometry" />
        </mxCell>
        <mxCell id="PF4K7zb1NUCe5OKD4z1z-56" value="true" style="edgeStyle=orthogonalEdgeStyle;rounded=0;orthogonalLoop=1;jettySize=auto;html=1;" parent="WIyWlLk6GJQsqaUBKTNV-1" source="PF4K7zb1NUCe5OKD4z1z-38" target="PF4K7zb1NUCe5OKD4z1z-50" edge="1">
          <mxGeometry relative="1" as="geometry" />
        </mxCell>
        <mxCell id="PF4K7zb1NUCe5OKD4z1z-38" value="month==11" style="rhombus;whiteSpace=wrap;html=1;" parent="WIyWlLk6GJQsqaUBKTNV-1" vertex="1">
          <mxGeometry x="200" y="1440" width="175" height="110" as="geometry" />
        </mxCell>
        <mxCell id="PF4K7zb1NUCe5OKD4z1z-58" value="true" style="edgeStyle=orthogonalEdgeStyle;rounded=0;orthogonalLoop=1;jettySize=auto;html=1;" parent="WIyWlLk6GJQsqaUBKTNV-1" source="PF4K7zb1NUCe5OKD4z1z-39" target="PF4K7zb1NUCe5OKD4z1z-51" edge="1">
          <mxGeometry relative="1" as="geometry" />
        </mxCell>
        <mxCell id="PF4K7zb1NUCe5OKD4z1z-39" value="month==9" style="rhombus;whiteSpace=wrap;html=1;" parent="WIyWlLk6GJQsqaUBKTNV-1" vertex="1">
          <mxGeometry x="200" y="1120" width="175" height="110" as="geometry" />
        </mxCell>
        <mxCell id="PF4K7zb1NUCe5OKD4z1z-57" value="true" style="edgeStyle=orthogonalEdgeStyle;rounded=0;orthogonalLoop=1;jettySize=auto;html=1;entryX=0;entryY=0.5;entryDx=0;entryDy=0;" parent="WIyWlLk6GJQsqaUBKTNV-1" source="PF4K7zb1NUCe5OKD4z1z-40" target="PF4K7zb1NUCe5OKD4z1z-52" edge="1">
          <mxGeometry relative="1" as="geometry" />
        </mxCell>
        <mxCell id="PF4K7zb1NUCe5OKD4z1z-40" value="month==10" style="rhombus;whiteSpace=wrap;html=1;" parent="WIyWlLk6GJQsqaUBKTNV-1" vertex="1">
          <mxGeometry x="200" y="1290" width="175" height="110" as="geometry" />
        </mxCell>
        <mxCell id="5ZEo8bup_q3QPzgCF5kW-2" style="edgeStyle=orthogonalEdgeStyle;rounded=0;orthogonalLoop=1;jettySize=auto;html=1;exitX=1;exitY=0.5;exitDx=0;exitDy=0;entryX=0.823;entryY=-0.017;entryDx=0;entryDy=0;entryPerimeter=0;" edge="1" parent="WIyWlLk6GJQsqaUBKTNV-1" source="PF4K7zb1NUCe5OKD4z1z-41" target="5ZEo8bup_q3QPzgCF5kW-0">
          <mxGeometry relative="1" as="geometry">
            <mxPoint x="830" y="350" as="targetPoint" />
            <Array as="points">
              <mxPoint x="830" y="350" />
              <mxPoint x="830" y="2079" />
            </Array>
          </mxGeometry>
        </mxCell>
        <mxCell id="PF4K7zb1NUCe5OKD4z1z-41" value="date&amp;gt;=21" style="rhombus;whiteSpace=wrap;html=1;" parent="WIyWlLk6GJQsqaUBKTNV-1" vertex="1">
          <mxGeometry x="482.5" y="295" width="175" height="110" as="geometry" />
        </mxCell>
        <mxCell id="5ZEo8bup_q3QPzgCF5kW-3" style="edgeStyle=orthogonalEdgeStyle;rounded=0;orthogonalLoop=1;jettySize=auto;html=1;exitX=1;exitY=0.5;exitDx=0;exitDy=0;" edge="1" parent="WIyWlLk6GJQsqaUBKTNV-1" source="PF4K7zb1NUCe5OKD4z1z-42">
          <mxGeometry relative="1" as="geometry">
            <mxPoint x="830" y="490" as="targetPoint" />
          </mxGeometry>
        </mxCell>
        <mxCell id="PF4K7zb1NUCe5OKD4z1z-42" value="date&amp;gt;=21" style="rhombus;whiteSpace=wrap;html=1;" parent="WIyWlLk6GJQsqaUBKTNV-1" vertex="1">
          <mxGeometry x="480" y="435" width="175" height="110" as="geometry" />
        </mxCell>
        <mxCell id="5ZEo8bup_q3QPzgCF5kW-7" style="edgeStyle=orthogonalEdgeStyle;rounded=0;orthogonalLoop=1;jettySize=auto;html=1;exitX=1;exitY=0.5;exitDx=0;exitDy=0;" edge="1" parent="WIyWlLk6GJQsqaUBKTNV-1" source="PF4K7zb1NUCe5OKD4z1z-43">
          <mxGeometry relative="1" as="geometry">
            <mxPoint x="830" y="1020" as="targetPoint" />
          </mxGeometry>
        </mxCell>
        <mxCell id="PF4K7zb1NUCe5OKD4z1z-43" value="date&amp;gt;=23" style="rhombus;whiteSpace=wrap;html=1;" parent="WIyWlLk6GJQsqaUBKTNV-1" vertex="1">
          <mxGeometry x="450" y="965" width="175" height="110" as="geometry" />
        </mxCell>
        <mxCell id="5ZEo8bup_q3QPzgCF5kW-4" style="edgeStyle=orthogonalEdgeStyle;rounded=0;orthogonalLoop=1;jettySize=auto;html=1;exitX=1;exitY=0.5;exitDx=0;exitDy=0;" edge="1" parent="WIyWlLk6GJQsqaUBKTNV-1" source="PF4K7zb1NUCe5OKD4z1z-44">
          <mxGeometry relative="1" as="geometry">
            <mxPoint x="830" y="620" as="targetPoint" />
          </mxGeometry>
        </mxCell>
        <mxCell id="PF4K7zb1NUCe5OKD4z1z-44" value="date&amp;gt;=21" style="rhombus;whiteSpace=wrap;html=1;" parent="WIyWlLk6GJQsqaUBKTNV-1" vertex="1">
          <mxGeometry x="470" y="565" width="175" height="110" as="geometry" />
        </mxCell>
        <mxCell id="5ZEo8bup_q3QPzgCF5kW-6" style="edgeStyle=orthogonalEdgeStyle;rounded=0;orthogonalLoop=1;jettySize=auto;html=1;exitX=1;exitY=0.5;exitDx=0;exitDy=0;" edge="1" parent="WIyWlLk6GJQsqaUBKTNV-1" source="PF4K7zb1NUCe5OKD4z1z-45">
          <mxGeometry relative="1" as="geometry">
            <mxPoint x="830" y="880" as="targetPoint" />
          </mxGeometry>
        </mxCell>
        <mxCell id="PF4K7zb1NUCe5OKD4z1z-45" value="date&amp;gt;=23" style="rhombus;whiteSpace=wrap;html=1;" parent="WIyWlLk6GJQsqaUBKTNV-1" vertex="1">
          <mxGeometry x="455" y="825" width="175" height="110" as="geometry" />
        </mxCell>
        <mxCell id="5ZEo8bup_q3QPzgCF5kW-5" style="edgeStyle=orthogonalEdgeStyle;rounded=0;orthogonalLoop=1;jettySize=auto;html=1;exitX=1;exitY=0.5;exitDx=0;exitDy=0;" edge="1" parent="WIyWlLk6GJQsqaUBKTNV-1" source="PF4K7zb1NUCe5OKD4z1z-46">
          <mxGeometry relative="1" as="geometry">
            <mxPoint x="830" y="750" as="targetPoint" />
          </mxGeometry>
        </mxCell>
        <mxCell id="PF4K7zb1NUCe5OKD4z1z-46" value="date&amp;gt;=22" style="rhombus;whiteSpace=wrap;html=1;" parent="WIyWlLk6GJQsqaUBKTNV-1" vertex="1">
          <mxGeometry x="455" y="695" width="175" height="110" as="geometry" />
        </mxCell>
        <mxCell id="5ZEo8bup_q3QPzgCF5kW-13" style="edgeStyle=orthogonalEdgeStyle;rounded=0;orthogonalLoop=1;jettySize=auto;html=1;exitX=1;exitY=0.5;exitDx=0;exitDy=0;" edge="1" parent="WIyWlLk6GJQsqaUBKTNV-1" source="PF4K7zb1NUCe5OKD4z1z-47">
          <mxGeometry relative="1" as="geometry">
            <mxPoint x="830" y="2000" as="targetPoint" />
          </mxGeometry>
        </mxCell>
        <mxCell id="PF4K7zb1NUCe5OKD4z1z-47" value="date&amp;gt;21" style="rhombus;whiteSpace=wrap;html=1;" parent="WIyWlLk6GJQsqaUBKTNV-1" vertex="1">
          <mxGeometry x="450" y="1945" width="175" height="110" as="geometry" />
        </mxCell>
        <mxCell id="5ZEo8bup_q3QPzgCF5kW-12" style="edgeStyle=orthogonalEdgeStyle;rounded=0;orthogonalLoop=1;jettySize=auto;html=1;exitX=1;exitY=0.5;exitDx=0;exitDy=0;" edge="1" parent="WIyWlLk6GJQsqaUBKTNV-1" source="PF4K7zb1NUCe5OKD4z1z-48">
          <mxGeometry relative="1" as="geometry">
            <mxPoint x="830" y="1830" as="targetPoint" />
          </mxGeometry>
        </mxCell>
        <mxCell id="PF4K7zb1NUCe5OKD4z1z-48" value="date&amp;gt;21" style="rhombus;whiteSpace=wrap;html=1;" parent="WIyWlLk6GJQsqaUBKTNV-1" vertex="1">
          <mxGeometry x="450" y="1775" width="175" height="110" as="geometry" />
        </mxCell>
        <mxCell id="5ZEo8bup_q3QPzgCF5kW-11" style="edgeStyle=orthogonalEdgeStyle;rounded=0;orthogonalLoop=1;jettySize=auto;html=1;exitX=1;exitY=0.5;exitDx=0;exitDy=0;" edge="1" parent="WIyWlLk6GJQsqaUBKTNV-1" source="PF4K7zb1NUCe5OKD4z1z-49">
          <mxGeometry relative="1" as="geometry">
            <mxPoint x="830" y="1660" as="targetPoint" />
          </mxGeometry>
        </mxCell>
        <mxCell id="PF4K7zb1NUCe5OKD4z1z-49" value="date&amp;gt;=22" style="rhombus;whiteSpace=wrap;html=1;" parent="WIyWlLk6GJQsqaUBKTNV-1" vertex="1">
          <mxGeometry x="450" y="1605" width="175" height="110" as="geometry" />
        </mxCell>
        <mxCell id="5ZEo8bup_q3QPzgCF5kW-10" style="edgeStyle=orthogonalEdgeStyle;rounded=0;orthogonalLoop=1;jettySize=auto;html=1;exitX=1;exitY=0.5;exitDx=0;exitDy=0;" edge="1" parent="WIyWlLk6GJQsqaUBKTNV-1" source="PF4K7zb1NUCe5OKD4z1z-50">
          <mxGeometry relative="1" as="geometry">
            <mxPoint x="830" y="1500" as="targetPoint" />
          </mxGeometry>
        </mxCell>
        <mxCell id="PF4K7zb1NUCe5OKD4z1z-50" value="date&amp;gt;=23" style="rhombus;whiteSpace=wrap;html=1;" parent="WIyWlLk6GJQsqaUBKTNV-1" vertex="1">
          <mxGeometry x="450" y="1445" width="175" height="110" as="geometry" />
        </mxCell>
        <mxCell id="5ZEo8bup_q3QPzgCF5kW-8" style="edgeStyle=orthogonalEdgeStyle;rounded=0;orthogonalLoop=1;jettySize=auto;html=1;exitX=1;exitY=0.5;exitDx=0;exitDy=0;" edge="1" parent="WIyWlLk6GJQsqaUBKTNV-1" source="PF4K7zb1NUCe5OKD4z1z-51">
          <mxGeometry relative="1" as="geometry">
            <mxPoint x="830" y="1180" as="targetPoint" />
          </mxGeometry>
        </mxCell>
        <mxCell id="PF4K7zb1NUCe5OKD4z1z-51" value="date&amp;gt;23" style="rhombus;whiteSpace=wrap;html=1;" parent="WIyWlLk6GJQsqaUBKTNV-1" vertex="1">
          <mxGeometry x="450" y="1125" width="175" height="110" as="geometry" />
        </mxCell>
        <mxCell id="5ZEo8bup_q3QPzgCF5kW-9" style="edgeStyle=orthogonalEdgeStyle;rounded=0;orthogonalLoop=1;jettySize=auto;html=1;exitX=1;exitY=0.5;exitDx=0;exitDy=0;" edge="1" parent="WIyWlLk6GJQsqaUBKTNV-1" source="PF4K7zb1NUCe5OKD4z1z-52">
          <mxGeometry relative="1" as="geometry">
            <mxPoint x="830" y="1350" as="targetPoint" />
          </mxGeometry>
        </mxCell>
        <mxCell id="PF4K7zb1NUCe5OKD4z1z-52" value="date&amp;gt;=24" style="rhombus;whiteSpace=wrap;html=1;" parent="WIyWlLk6GJQsqaUBKTNV-1" vertex="1">
          <mxGeometry x="450" y="1295" width="175" height="110" as="geometry" />
        </mxCell>
        <mxCell id="PF4K7zb1NUCe5OKD4z1z-108" value="End" style="ellipse;whiteSpace=wrap;html=1;" parent="WIyWlLk6GJQsqaUBKTNV-1" vertex="1">
          <mxGeometry x="700" y="2258" width="120" height="80" as="geometry" />
        </mxCell>
        <mxCell id="5ZEo8bup_q3QPzgCF5kW-1" style="edgeStyle=orthogonalEdgeStyle;rounded=0;orthogonalLoop=1;jettySize=auto;html=1;exitX=0.25;exitY=1;exitDx=0;exitDy=0;" edge="1" parent="WIyWlLk6GJQsqaUBKTNV-1" source="5ZEo8bup_q3QPzgCF5kW-0" target="PF4K7zb1NUCe5OKD4z1z-108">
          <mxGeometry relative="1" as="geometry" />
        </mxCell>
        <mxCell id="5ZEo8bup_q3QPzgCF5kW-0" value="cung hoang dao" style="shape=parallelogram;perimeter=parallelogramPerimeter;whiteSpace=wrap;html=1;fixedSize=1;" vertex="1" parent="WIyWlLk6GJQsqaUBKTNV-1">
          <mxGeometry x="730" y="2080" width="120" height="60" as="geometry" />
        </mxCell>
      </root>
    </mxGraphModel>
  </diagram>
</mxfile>
